/* XPM */
static char *_527822814255[] = {
/* columns rows colors chars-per-pixel */
"78 39 254 2 ",
"   c #016BFD",
".  c #006AFE",
"X  c #006BFF",
"o  c #016BFF",
"O  c #026AFF",
"+  c #026BFF",
"@  c #036BFF",
"#  c #006CFF",
"$  c #026CFF",
"%  c #036DFF",
"&  c #0373FD",
"*  c #0170FE",
"=  c #0071FE",
"-  c #0170FF",
";  c #0171FF",
":  c #0271FE",
">  c #0370FF",
",  c #0271FF",
"<  c #0172FE",
"1  c #0072FF",
"2  c #0172FF",
"3  c #0372FF",
"4  c #0273FF",
"5  c #0471FF",
"6  c #0472FF",
"7  c #0473FF",
"8  c #0177FD",
"9  c #0276FD",
"0  c #0377FE",
"q  c #0276FF",
"w  c #0377FF",
"e  c #0577FC",
"r  c #0577FE",
"t  c #0576FF",
"y  c #0278FC",
"u  c #0378FC",
"i  c #0079FE",
"p  c #0078FF",
"a  c #0278FE",
"s  c #0278FF",
"d  c #0379FF",
"f  c #0478FF",
"g  c #017CFD",
"h  c #007DFE",
"j  c #037CFE",
"k  c #027DFE",
"l  c #027CFF",
"z  c #027DFF",
"x  c #017EFE",
"c  c #017EFF",
"v  c #037EFF",
"b  c #027FFF",
"n  c #057CFC",
"m  c #047EFD",
"M  c #047DFF",
"N  c #067DFF",
"B  c #057EFF",
"V  c #047FFF",
"C  c #0282FD",
"Z  c #0383FE",
"A  c #0383FF",
"S  c #0583FC",
"D  c #0482FD",
"F  c #0480FE",
"G  c #0583FE",
"H  c #0582FF",
"J  c #0682FE",
"K  c #0783FF",
"L  c #0384FC",
"P  c #0284FE",
"I  c #0385FF",
"U  c #0484FF",
"Y  c #0585FF",
"T  c #0684FF",
"R  c #0587FF",
"E  c #0388FE",
"W  c #038AFF",
"Q  c #0588FC",
"!  c #048AFD",
"~  c #0588FE",
"^  c #0489FF",
"/  c #0788FF",
"(  c #0689FF",
")  c #058AFF",
"_  c #078AFF",
"`  c #068EFC",
"'  c #078FFD",
"]  c #078DFE",
"[  c #068DFF",
"{  c #058FFE",
"}  c #068EFE",
"|  c #078EFF",
" . c #068FFF",
".. c #078FFF",
"X. c #088EFF",
"o. c #0690FD",
"O. c #0693FD",
"+. c #0490FF",
"@. c #0591FF",
"#. c #0690FF",
"$. c #0791FF",
"%. c #0794FE",
"&. c #0695FE",
"*. c #0794FF",
"=. c #0795FF",
"-. c #0596FF",
";. c #0796FE",
":. c #0796FF",
">. c #0697FF",
",. c #0890FF",
"<. c #0993FE",
"1. c #0895FF",
"2. c #0A94FF",
"3. c #0996FF",
"4. c #0897FF",
"5. c #0799FC",
"6. c #0799FE",
"7. c #0799FF",
"8. c #069AFE",
"9. c #069BFF",
"0. c #079BFF",
"q. c #089AFD",
"w. c #0A9AFD",
"e. c #0A99FF",
"r. c #089AFF",
"t. c #099BFF",
"y. c #089CFF",
"u. c #099DFF",
"i. c #0A9CFF",
"p. c #099FFE",
"a. c #0B9FFF",
"s. c #07A2FF",
"d. c #07A7FF",
"f. c #08A1FE",
"g. c #08A1FF",
"h. c #0AA0FE",
"j. c #0AA0FF",
"k. c #0BA1FF",
"l. c #09A2FF",
"z. c #08A6FD",
"x. c #0AA5FF",
"c. c #09A7FE",
"v. c #08A6FF",
"b. c #09A7FF",
"n. c #0BA7FE",
"m. c #0BA6FF",
"M. c #0CA5FF",
"N. c #0CA6FF",
"B. c #0CA7FF",
"V. c #0AA9FD",
"C. c #0AA8FF",
"Z. c #0AAAFE",
"A. c #0BAAFE",
"S. c #0BABFF",
"D. c #0CABFF",
"F. c #0AACFD",
"G. c #0BACFD",
"H. c #0AACFF",
"J. c #0BADFF",
"K. c #0CACFF",
"L. c #0AB0FE",
"P. c #0BB0FF",
"I. c #0AB1FF",
"U. c #0BB1FF",
"Y. c #09B3FF",
"T. c #0BB2FF",
"R. c #0DB0FF",
"E. c #0CB1FF",
"W. c #0EB0FF",
"Q. c #0EB1FF",
"!. c #0CB2FE",
"~. c #0CB2FF",
"^. c #0DB2FF",
"/. c #0CB3FF",
"(. c #0DB3FF",
"). c #0BB5FF",
"_. c #0BB6FE",
"`. c #0BB7FF",
"'. c #0CB7FD",
"]. c #0CB6FF",
"[. c #0CB7FF",
"{. c #0FB7FE",
"}. c #0EB6FF",
"|. c #0BB9FF",
" X c #0DB8FD",
".X c #0DB8FE",
"XX c #0CB9FE",
"oX c #0CB8FF",
"OX c #0DB8FF",
"+X c #0DB9FF",
"@X c #0EB9FF",
"#X c #0DBBFF",
"$X c #0BBDFD",
"%X c #0BBFFE",
"&X c #0CBEFC",
"*X c #0DBCFF",
"=X c #0CBDFF",
"-X c #0EBDFE",
";X c #0EBCFF",
":X c #0FBCFF",
">X c #0EBDFF",
",X c #0CBEFE",
"<X c #0DBEFF",
"1X c #0DBFFF",
"2X c #0FBEFF",
"3X c #10BDFF",
"4X c #10BFFF",
"5X c #0CC3FD",
"6X c #0EC3FC",
"7X c #0FC3FE",
"8X c #0FC3FF",
"9X c #0DC4FD",
"0X c #0CC5FD",
"qX c #0FC4FD",
"wX c #0DC4FE",
"eX c #0CC5FE",
"rX c #0DC4FF",
"tX c #0EC5FE",
"yX c #0EC5FF",
"uX c #0DC6FF",
"iX c #0FC8FE",
"pX c #0FCAFF",
"aX c #0FCDFD",
"sX c #0FCFFE",
"dX c #10C2FE",
"fX c #10C2FF",
"gX c #11C3FF",
"hX c #10C5FE",
"jX c #10C4FF",
"kX c #10CAFD",
"lX c #10C8FE",
"zX c #10C9FF",
"xX c #11C9FF",
"cX c #11CAFF",
"vX c #10CBFF",
"bX c #10CEFE",
"nX c #10CEFF",
"mX c #11CFFF",
"MX c #13CFFF",
"NX c #12D0FF",
"BX c #11D5FD",
"VX c #10D6FD",
"CX c #10D4FE",
"ZX c #10D5FF",
"AX c #11D5FF",
"SX c #13D4FF",
"DX c #11D9FD",
"FX c #12DAFE",
"GX c #13DBFF",
"HX c #14DAFF",
"JX c #11E0FF",
"KX c #13E0FF",
"LX c #14E1FF",
"PX c #15E2FF",
/* pixels */
"$ $ $ @ @ @ @ @ @ @ $ @ $ @ $ $ @ @ $ $ $ $ $ $ $ % % $ @ @ @ @ @ @ @ @ @ $ $ $ @ @ $ @ @ $ @ @ @ @ @ @ @ @ $   @ @ @ $ @ $ $ $ $ $ $ $ $ $ @ @ @ @ @ @ @ 2 ",
"$ 2 6 2 2 2 2 2 2 2 $ 2 2 2 2 2 2 2 2 2 2 2 $ 2 2 2 6 6 2 2 2 2 2 2 2 2 2   2 2 2 2 2 2 2 2 2 2 2 2 2 2 2 2 2 2 2 2 6 2 2 2 2 2 $ 2 2 2 6 2 2 2 2 2 2 2 r 2 ",
"$ 6 r w w y g w w w w w w w r w w w w w r g w w w w r w w w w g w w w w w w g r w w w w y w w y w w g w w w g w w w w w w w g r w w w w g w w w r w w v w 6 ",
"$ 2 w v N v N B v B N v g v v v v v v B v v N v v N v B g B N B g B B g g N B g B v v B B B v v g N g N B B g B g B B g v N g N g v v v N v v v B v C B w 6 ",
"$ 2 w g C D D C C T D C C C D D T C P C T P D P D D C D C T T P D P C P D T T P P P T C C C D D D D C D C P P P D T P P D D C D D D T D C T D P C ( C B w 2 ",
"@ 6 w v C ( ( ( W ( ( W ( ( ( ( ( ( ( W W ( W ( ( T W W ( ( ( P ( ( ( ( T W ( ( ( T ( W ( W ( ( ( ( W ( ( ( ( T ( W ( T ( ( ( ( _ ( ( ( ( ( ( ( #.( C B w 2 ",
"@ 2 r v T ( #. . . . . . . .#.#.#.#.#.#. . .X. .#.#.#. . . .#. .#.#.#.#. . .#. . . . . .#. .<. . . .#.<.#. . .<.#.#.#.<.#.#.#.#. . .X. .#. .#.;.#.( P v w 2 ",
"@ 2 w v D ( #.4.4.4.;.;.#.4.;.;.;.;.;.#.;.;.4.#.;.;.;.;.;.;.<.;.;.;.;.;.#.<.;.;.;.4.;.;.;.;.#.4.;.;.;.#.;.;.#.4.;.;.#.;.;.;.;.;.;.;.;.;.4.;.7.;.#.( C B w 2 ",
"$ 2 w B D ( #.;.7.i.i.7.i.7.7.9.i.7.7.i.7.7.i.i.i.7.7.i.i.i.i.i.7.i.i.7.i.7.i.7.i.7.7.i.7.7.9.i.7.7.i.7.7.i.7.i.i.7.i.7.7.i.7.7.7.7.i.i.5.9.7.;.#.( C v r 2 ",
"$ $ w g P ( #.;.i.g.a.g.a.s.g.g.a.a.s.a.g.g.g.g.a.g.a.k.a.g.9.g.g.g.a.a.a.g.a.s.a.a.a.s.a.a.g.g.g.a.s.a.a.g.a.g.a.s.a.a.a.g.g.g.g.a.g.g.N.g.i.#.#.( P B w 2 ",
"@ 2 w N C ( #.;.7.a.c.N.N.c.c.N.c.c.N.c.N.c.c.c.c.c.c.g.c.c.c.N.c.d.c.c.d.c.d.c.k.c.c.c.c.N.c.c.N.S.c.N.c.c.c.c.c.d.c.c.c.c.c.N.c.N.c.J.c.a.7.;.#.( D B g 6 ",
"$ 2 g B T (  .<.7.g.c.D.S.S.S.D.S.S.D.D.S.S.D.S.S.D.S.S.S.S.S.S.S.S.S.S.S.S.S.S.J.S.D.D.S.D.D.S.S.S.S.S.S.S.S.S.S.S.S.S.S.D.D.J.S.S.~.S.S.a.i.;.#.W D v w 6 ",
"$ 2 w v C ( #.;.i.a.c.S.T.~.T.~.T.T.T.~.~.~.T.J.T.~.~.~.T.T.T.~.T.~.~.~.~.~.T.T.~.~.T.T.~.~.J.~.T.T.~.~.~.~.~.~.T.T.T.~.T.~.~.~.~.[.~.D.c.a.i.;.#.( P v w $ ",
"$ 2 w v D W #.4.7.a.c.S.~.[.[.[.'.;X[.[.;X[.[.;X[.[.[.[.;X[.[.[.[.[.[.[.XX[.XX'.[.XX'.;X[.[.'.;X'.[.[.[.[.[.[.[.'.;X'.;X[.[.[.[.;X[.~.D.c.s.7.;.+.( D B r 2 ",
"$ 2 w v T W #.#.7.g.N.D.~.[.;X-X-X$X-X$X;X;X-X-X-X-X-X-X$X-X-X-X-X-X-X4X-X-X-X-X-X-X-X-X-X$X-X-X-X-X-X-X;X-X-X-X$X-X-X-X-X4X-XeX-X[.J.S.c.s.7.#.#.( T B w 2 ",
"$ $ y v T ( #.;.i.g.c.J.J.;X-XdX7X7XhX7X7X7X7X7X7XhXdXeX7X7XeXhXdXeX7XeX5X7X7X7X7X7XeX7X7X7XhX7XeXdX7XeXhX7XeXhXeX7X7X7X7XeXlXdX4X;X~.D.c.a.i.;.#.P D v g $ ",
"$ 2 w v D (  .;.9.s.c.S.~.[.-XeXpXpXlXlXlXlXlXlXlXlXlXpXlXlXlXlXsXlXlXlXlXlXlXbXlXlXsXlXpXpXlXlXlXlXlXlXlXlXlXlXlXsXlXlXbXbXlXeX-X'.T.S.c.g.7.;. .W D v r 2 ",
"@ & w v D (  .;.7.a.c.S.T.;X-XhXpXbXbXbXNXNXNXNXbXbXNXsXsXNXbXNXbXbXNXbXNXbXbXbXNXbXbXsXbXNXNXbXbXbXNXNXNXbXNXbXbXbXNXNXAXbXlX7X;X'.T.S.c.a.a.#. .W D v g 2 ",
"$ 2 N g T T  .;.i.a.c.S.~.T.4XeXlXNXAXAXAXAXZXAXAXAXAXAXAXAXAXAXAXAXAXAXAXAXAXAXAXAXAXNXAXAXAXAXAXAXAXAXAXAXAXAXAXAXAXGXAXbXlXeX-X;XT.S.c.a.7.;. .( D B w 2 ",
"$ 2 y g D /  .4.i.g.N.S.~.[.-XhXlXbXAXLXGXLXJXJXLXLXLXLXJXLXJXLXLXGXLXLXLXLXJXLXLXGXLXLXJXLXJXLXJXLXLXJXLXLXLXJXLXJXGXGXAXNXlXdX$X'.T.S.N.a.9.;.#.( D B w 2 ",
"@ 2 w v T ( #.#.9.g.N.D.T.[.-XeXlXbXHXFXFXGXFXGXGXGXGXFXFXFXFXGXGXGXGXGXGXGXGXFXGXGXGXGXFXFXGXGXFXGXGXGXGXFXFXGXFXFXGXGXAXbXlXdX-XXXT.S.c.g.i.#. .P C v w 2 ",
"@ 2 w v C ( #.;.7.a.c.S.~.;X-X7XlXAXAXAXAXAXAXAXAXAXAXAXAXAXAXAXAXAXAXAXNXAXAXAXAXAXAXAXAXAXAXAXAXAXAXAXAXAXAXAXAXAXAXAXAXbXlXhX-X[.T.S.c.g.7.;.#.( C v w 6 ",
"@ 2 w n C ( o.;.7.a.c.S.~.[.$XeXNXsXbXNXNXNXNXNXbXbXNXNXbXbXNXNXbXbXbXbXbXbXbXNXNXNXNXbXbXbXbXbXbXbXNXNXNXNXsXbXbXbXNXNXbXsXlXhX;X'.~.S.N.g.7.;.#.W C B w 2 ",
"@ 2 w B P (  .o.i.a.V.S.~.[.-XpXpXpXlXpXpXlXlXlXlXlXpXlXlXlXlXlXlXbXlXlXbXlXlXpXpXlXlXlXlXlXpXpXlXlXlXlXpXlXpXlXlXlXlXlXlXpXlXdX;X;X~.D.N.g.7.;.#.( P B w 2 ",
"$ 2 w B C ( #.4.i.a.c.S.~.[.7X7XhXhX7X7XdX7X7XeXdX7X7X7XdXeXdXeXhXhX7X7X7XeXdXeX7X7X7X7X7X7XeX7XeXdXhXdX7XeX7XdXhXhXdX7XdX7XdX7X-X'.~.S.c.a.7.;.#.( D N r 6 ",
"  2 w B C W #.;.i.a.g.S.T.-X-X-X-X-X-X-X-X4X-X-X4X-X4X$X-X4X-X-X-X-X-X-X$X-X3X4X;X3X-X-X-X-X-X-X4X$X-X-X-X-X-X;X-X-X4X;X;X4X-X$X4X[.~.J.c.a.a.#.#.( D B w 2 ",
"@ 2 w v D ( #.;.i.a.N.S.'.[.[.[.[.[.;X[.[.[.[.[.;X'.[.;X[.[.[.[.;X;X'.[.[.[.[.[.[.[.[.[.XX'.'.[.[.[.[.[.[.;X[.;X;X[.[.3X;X[.;X[.[.[.~.S.N.a.7.;.#.( D B y 2 ",
"@ 2 y v T ( #.#.7.k.c.~.~.~.~.T.J.~.~.~.T.~.~.~.T.T.J.T.J.T.~.T.~.J.T.T.~.~.~.~.~.~.~.~.T.T.T.T.~.~.~.~.T.T.~.~.~.~.J.~.~.~.~.T.~.~.T.S.c.a.9.4. .W C N r 2 ",
"@ 2 y g C (  .;.7.a.D.D.J.S.S.J.D.D.D.S.S.S.S.S.S.S.D.S.D.S.S.S.S.S.S.S.D.S.J.D.S.S.S.D.D.S.D.D.D.D.S.S.D.S.S.D.S.S.S.S.S.D.D.S.S.D.S.S.N.g.7.;. .W C v y 2 ",
"@ 2 w v D (  .;.i.c.g.c.c.c.c.c.N.N.N.c.N.c.c.d.g.c.c.c.N.c.d.c.c.c.c.c.N.N.N.c.N.N.c.N.c.c.N.N.N.c.N.c.c.d.c.N.c.c.c.c.c.k.N.c.c.c.c.N.c.a.i.4. .( D g w 2 ",
"$ 2 w v T (  .;.g.g.g.a.g.a.a.g.a.g.a.g.a.g.g.a.g.a.g.a.a.a.a.a.a.a.a.g.a.s.g.a.g.k.s.g.a.a.g.g.g.g.g.a.a.a.g.a.a.s.a.a.a.a.a.g.s.a.g.g.g.a.9.;. .( C B w 2 ",
"$ 2 w B C W  .i.7.9.i.i.7.a.7.9.i.7.7.9.i.7.i.7.i.i.7.a.i.7.a.7.i.7.i.i.7.i.9.7.9.9.7.7.7.i.9.9.7.7.7.i.7.a.7.7.7.i.7.7.i.7.i.i.;.i.i.7.7.i.7.<.#.( C v w 6 ",
"@ 6 r g P ( ;.;.;.;.;.;.;.<.;.;.;.;.4.4.4.4.;.;.#.4.;.4.;.;.#.;.;.;.;.;.;.;.4.;.;.;.#.4.<.;.;.;.;.;.;.#.#.;.;.;.;.;.;.;.;.;.;.;.4.;.4.#.4.;.;.;. .( D v w 2 ",
"@ 2 r B C #. . . .#. . . . . . . . . .#. . . . .X. . . .#.#.#. . . .#. . .#. . .#. .#.<. .X.#. . .#. .#. . .#.#.#. .#.#. . .#.#.#. . . .#. .#. . .W D B r 2 ",
"@ 2 y B ( ( ( ( ( W ( ( ( ( ( ( ( ( _ ( T ( ( ( ( ( ( ( ( ( W ( T ( ( W ( ( ( W ( ( ( ( ( ( ( ( ( ( ( ( W ( ( ( ( ( ( ( ( ( W ( ( W ( ( ( ( W ( ( ( C B w 2 ",
"@ 2 w L T D D L D C C T D P T D C C D C T P P D D D P T C T T D P P P T C T D C D D C C D D C T P D T D T C C D C D P D T D P C P C D D D T C C C C D v w 2 ",
"@ 2 g g v v v g B v v g v g B v v g N g v v N g v g v v B v N g v B v B B N g g g B N v B g g B B v N g B N N g v g B B v g v g N g v B g v v v B v B g N $ ",
"@ g w r w w w w w w w w w r r w g r w r w r w w g r g w w r w w w w w w g w w w g r w w w w w N g w w g w w g r w w e r w w w r w r w w N w w r w w w g N 2 ",
"2 6 2 2 2 2 6 2 2 6 2 2 6 2 2 2 w 2 2 $ 6 2 2 2 2 6 % 2 2 2 6 2 $ 2 2 2 2 2 2 2 2 6 2 6 2 $ 6 2 2 6 2 $ $ 2 2 2 2 $ 6 6 2 2 2 6 2 6 2 2 $ 2 6 2 2 $ 2 2 $ 2 "
};
