/* XPM */
static char *_527822828290[] = {
/* columns rows colors chars-per-pixel */
"78 39 44 1 ",
"  c #8B016C",
". c #90016E",
"X c #8F0171",
"o c #930273",
"O c #9B0477",
"+ c #9C0479",
"@ c #A1047E",
"# c #A50682",
"$ c #AA0685",
"% c #AD0689",
"& c #AD088A",
"* c #B3078D",
"= c #B9078F",
"- c #B3088C",
"; c #B8088F",
": c #B70790",
"> c #BB0794",
", c #B60A92",
"< c #BC0994",
"1 c #BE0898",
"2 c #C10796",
"3 c #C20A97",
"4 c #C40A9B",
"5 c #CA0B9F",
"6 c #CC0BA1",
"7 c #D10CA4",
"8 c #D80DA7",
"9 c #D60DA9",
"0 c #DC0EAE",
"q c #DC10AF",
"w c #DB0DB0",
"e c #E20EB3",
"r c #E80FB6",
"t c #E70FB8",
"y c #EB0FBA",
"u c #E510B5",
"i c #E811B7",
"p c #E510B8",
"a c #ED10BC",
"s c #F211BE",
"d c #EF11C0",
"f c #F411C1",
"g c #F912C6",
"h c #FE13CA",
/* pixels */
"                                                                             X",
"  .ooXXXXXooXXXXXo o. oX Xo .. oo  ooo  . . o.ooXXo  o oX .oXXo o. XX Xo .. oo",
" oooooooooooOooooOoooo+oOoooOooOooOoOoOOoOOoooooOoooOooOoOooOooooOOoooOoooO+oo",
" oo+O#+++++++++++++O++++++++++++++O++++O++O++++++++++++++++++++++O+O++++++@Ooo",
"  O+###+@++###@+@@@@@@@@##+@#@@@#+#@###+@@#@@@@@#@@##++@@@@+@@#@@@@@@@@@@#@+oo",
"  o++#$#$$####$#$$@$%@%@##$##$$@$$$###&#@$$$$$@$#$$##$$#$$#$$#$#$$@$@$$$&$@+o.",
" .o+##%%%%%%%%%%%%$%%%%%%%%$%%%%%%$%$%&&%$%%%%%%%%$%%%%%%%%%%%%%%$-$%%%*%$@+O ",
" .O+##%&-**-------------****----**-*-*-*------*=********--*-**--------<*%#@+oo",
" oo+@$%-,,;,,,,=;,=,;<;,,,,,,,:::;,,;,<;;;;,;,,,,=;::*,;,,;;;;,,,=;*:3,*%##+o ",
"  O+@$%-,21332321221212323213221113221313113112<3121313113113113111351=*%%++Oo",
"  o+@$%-<1344444444444443444444444444444444444444444444444444442444542;-%$+Ooo",
" oOO@#%-=2455555555555555555555655555555555556566555566555555555666541,-%##+oo",
"  OO@#%-,1457777777777777977777777777777777777766767776777777977796641,*%#@+oo",
"  o++$$-,1457899899998889899999999999899q99999999999999999998999087642==%#@+o.",
" X++@$%-;3457909000000000000000000000000900900w000ww000w0000000e087541:*%##O+X",
" oOO@#%-:24679weeeeeeeeeeee0eeeeeueeueeeeeuueeeeeeeeeeeeeeeeeere09754<,*%#@+o ",
" XO+##%*,145790ettttttittiiteittttttiytrttietittrtttttrttrtitaie097542<-%$@+Oo",
" Xo+##%-=245790erysyyyysdayffayyyfyddydysyfyfyyssyysifsyysydffie097541,*%$@+oo",
" XoO@@%-,345799ersffffgffffffffffffffffffffffffffffffffffffgfiteq87541;-%$@+O ",
"  o+@$%-;246790eryfhhhhhhhhhhhhhhhhhhhhhhhhhhhhhhhhhhhhhhhhgfapu097541;-%#@+o ",
" .O+@$%-,24579weesgggggggggfgggggggghgggghggggggggggggggggggfate087541<-%@@+O.",
" oo+@@%-,245790epffsfsfffffffffffffffffffffsfffffffsfsfffffffsre097543=-$$@OO ",
"  o+@@%-,24579wesaassysysyfidyyyysydsydyasyasyaiysisisayaiaaaaee087542=-%$@@oo",
" .O+@$%-,<4599witititrtitttritttrttttttiritirriittyryirtyiriirre097541<-%@@@oo",
" oo++$%-,34579uweeeeeeeeeeeeeeeeeeeeuweeeeeeeeeueeeeeeeeeeeeeeee097541,-&#@+o ",
"  o+##%-,3456000000000000000q00000000q000000w0000000000000000000097541=-%#@+OX",
" oOO@$%-=2458898999999999999989998809999999899999999999999999988897542,-%@@+oo",
" oo++$%-:147777777777777777777777767777677677777797776767777776777754<<%%$@+oX",
"  o+##%*,266555565555545556555555555665555555555555565555655555555554<;-%$++oo",
" XO++%%*,4444444444444444444444444444444453444344444444444444454443443,-%$@+oo",
" oo+##%*3232322331131311313323131<32321123231323321133141<231321331311;-%$@+oo",
"  o+@$%::,,,,,,=,,;,,:;,:,,::,=,:<,=,,,-:,,:,;,<,,,-,,-:==,=,;,;,;;,;;;-%$@+oo",
" oO++$******&:***-*---*-********-*-*****----**********---*-------*****--%$@OOX",
" oo+@%%%%$%$$%%%%%%%%%%%%$%%%%%%%%%$%%%%%%%%%%%%%%$$%%%%%%%%%%%%&&%%%%%%%@@+o ",
" Xo+$#$##$$$$######$##$##$$##$#$#$##$@@$####$##$$$@$##$$$$@$$$@$#$###$##$$@Ooo",
" Xo#+@@@@##@+###@@@@#@@@@@@@#+@#+@@#@@#@#@#@@@@@@@@@#@@@@@@@@@@@@@##@@@@@@@+oo",
" XO+++++O++++++++OO++++++O+O+++O++++O+++++++++++O+++++++++OOOO++++++++++O+++O.",
" oooooOoooOoOooOOoOoooOooOOooooOooOooooOooo+OoOoOooooOoooOoooOooooOoooOoOooOoo",
"o Xo oXXXooXo  o oXX ooX oXXXoXXooXXo o.oo XXXX ...ooXoXoX oooo  oo.o. oo o XX"
};
