/* XPM */
static char *f000d1a4da6f43ddbe4b4ba1881a87c2[] = {
/* columns rows colors chars-per-pixel */
"34 17 81 1 ",
"  c #0373FD",
". c #0371FE",
"X c #0172FF",
"o c #0372FF",
"O c #0273FF",
"+ c #0074FF",
"@ c #037CFE",
"# c #037EFF",
"$ c #027FFF",
"% c #047DFF",
"& c #067DFF",
"* c #057EFF",
"= c #047FFF",
"- c #0380FF",
"; c #0480FE",
": c #0580FF",
"> c #058BFC",
", c #0688FF",
"< c #048BFE",
"1 c #058BFE",
"2 c #058AFF",
"3 c #078AFE",
"4 c #078AFF",
"5 c #068BFF",
"6 c #048CFC",
"7 c #058CFF",
"8 c #068CFF",
"9 c #0796FE",
"0 c #0796FF",
"q c #0996FF",
"w c #0897FF",
"e c #0998FF",
"r c #08A3FD",
"t c #09A3FD",
"y c #08A1FE",
"u c #0BA1FF",
"i c #09A2FF",
"p c #08A3FF",
"a c #0AA3FF",
"s c #0CA2FF",
"d c #0DA3FF",
"f c #0AA4FC",
"g c #09A4FF",
"h c #0AA4FE",
"j c #0BA4FF",
"k c #0BADFE",
"l c #0AAFFF",
"z c #0CAEFF",
"x c #0BB1FD",
"c c #09B0FF",
"v c #0AB0FE",
"b c #0AB1FF",
"n c #0BB1FF",
"m c #0DB0FD",
"M c #0DB0FF",
"N c #0EB1FF",
"B c #0CB2FF",
"V c #0CBBFE",
"C c #0DBBFF",
"Z c #0EBBFF",
"A c #0BBCFF",
"S c #0DBCFF",
"D c #0FBCFF",
"F c #0EBDFF",
"G c #10BCFE",
"H c #0EC7FF",
"J c #0FC8FF",
"K c #0EC9FF",
"L c #10C7FF",
"P c #12C7FF",
"I c #10C8FE",
"U c #13D4FD",
"Y c #10D5FF",
"T c #11D5FF",
"R c #13D4FF",
"E c #12DFFE",
"W c #14DFFF",
"Q c #13E0FF",
"! c #14E1FF",
"~ c #16E1FF",
"^ c #15E2FF",
/* pixels */
"OOOO.OOOOOOOO.OO.+OOOOOOOOOO.OOO.@",
"O*#*****#*****#;****#**#*@-****@2*",
"+;2222222<222<22222<26<222222>2w2#",
"O*2wwww9wwe9e9ewewwewweewwewewuw2*",
"O*<wuurppurupuuuupupppuppupuunue6*",
"O;<9uxxxxxxlzlznxxxxnnznnnnzAlf92#",
".*<wunSSSSSGSSCSSSSSGSSSSSSIAxuw2*",
"O#<wulSJJIIJJJLLIIJJIJIIIHTJSxrw2*",
".@2wuzSJQ!!!W!!!!QQW!Q!!!!UISxuw2;",
"O#2wulSTTTTUTTTTTTTTUUTTTTTISxuw2#",
"O;2wulJJJJIJJJIIILIJIJJJLJJLAxpe2*",
"O*2wrSSASSSSGSSSCDSSSCSACSSSCxue<*",
"O*2elnxlxxBxnxznnnxzxxnxllxxxxu92;",
"O*<rpuuupupupuupuppuruuuuuupuruw2-",
"O-eeewwwwwweee9wwweee9e9eeewwwww2*",
"O22222<222222<<22262<22222<<22<<2@",
"*#*#*#*#*#*#*-*-;*-*#*#*##*-*#*###"
};
