/* XPM */
static char *_21415bc80534b0391c10fdad81d07f4[] = {
/* columns rows colors chars-per-pixel */
"34 17 113 2 ",
"   c #8F016F",
".  c #90006F",
"X  c #91026E",
"o  c #8F0370",
"O  c #8F0272",
"+  c #910170",
"@  c #900270",
"#  c #910172",
"$  c #900173",
"%  c #900272",
"&  c #9C0378",
"*  c #9E0379",
"=  c #9C027A",
"-  c #9D037B",
";  c #9E037B",
":  c #990478",
">  c #9D0479",
",  c #9C0579",
"<  c #9C047B",
"1  c #9C027C",
"2  c #9B067C",
"3  c #9C047D",
"4  c #A60682",
"5  c #A70783",
"6  c #A70785",
"7  c #A90781",
"8  c #A80582",
"9  c #A90683",
"0  c #AA0683",
"q  c #A90484",
"w  c #A80584",
"e  c #AB0485",
"r  c #AA0585",
"t  c #A90685",
"y  c #AA0587",
"u  c #A90687",
"i  c #AB0686",
"p  c #B5078D",
"a  c #B7078D",
"s  c #B5068F",
"d  c #B7078E",
"f  c #B6088D",
"g  c #B4088E",
"h  c #B6088E",
"j  c #B7098F",
"k  c #B8088F",
"l  c #B60790",
"z  c #B70790",
"x  c #B60792",
"c  c #BF0896",
"v  c #C00995",
"b  c #C00997",
"n  c #C20897",
"m  c #C10A96",
"M  c #C30A96",
"N  c #C20B97",
"B  c #C00999",
"V  c #C30998",
"C  c #C20899",
"Z  c #C10A98",
"A  c #C20B99",
"S  c #C3099A",
"D  c #C00A9A",
"F  c #C10A9A",
"G  c #CC0A9F",
"H  c #CD0AA2",
"J  c #CE0BA3",
"K  c #CC0CA0",
"L  c #CD0DA1",
"P  c #CE0CA1",
"I  c #CD0CA3",
"U  c #CF0DA2",
"Y  c #CD0AA4",
"T  c #CE0BA5",
"R  c #CD0CA5",
"E  c #D00BA1",
"W  c #D00BA3",
"Q  c #D00AA5",
"!  c #D90BAB",
"~  c #DA0DAA",
"^  c #DB0EAB",
"/  c #DD0DAB",
"(  c #D90DAC",
")  c #DA0CAC",
"_  c #DB0DAD",
"`  c #D80FAD",
"'  c #DA0EAD",
"]  c #DA0CAE",
"[  c #DB0FAE",
"{  c #E60FB4",
"}  c #E70EB5",
"|  c #E60FB5",
" . c #E40FB7",
".. c #E60EB7",
"X. c #E80FB6",
"o. c #E70FB8",
"O. c #E511B5",
"+. c #E510B6",
"@. c #E710B6",
"#. c #E811B7",
"$. c #F111BF",
"%. c #F111C1",
"&. c #F012C1",
"*. c #F110C2",
"=. c #F212C2",
"-. c #F411C0",
";. c #F512C1",
":. c #F411C2",
">. c #F411C3",
",. c #F512C3",
"<. c #FF12CA",
"1. c #FE13CA",
"2. c #FF14CB",
/* pixels */
"+ + X + o + o + o X + X o X + o + + o + + $ + o @ X + + @ o X   o 3 ",
"X - - - 2 - 1 2 - - 3 3 * * 3 - , 3 , , 1 1 - - - 1 - 3 - - - - 9 * ",
"+ - 7 9 9 9 9 9 9 y y 9 9 9 9 9 y 9 9 9 9 9 9 y 7 9 9 9 6 6 5 f 6 , ",
"o - 9 f l f l l f f l f l a l l l l l l a l z x f f f f k l B f q - ",
"+ * 9 l B M B B B B V B M M B c c A c B B B c c M A A c B W M f 9 - ",
"o 1 y a M T P T P P Q P T T U T T P P P W W P P P T P T [ P c a 9 1 ",
"+ 3 9 l C P ' ' ' ] ~ ' ~ ' ' ' [ ' ' ' ' ' ~ ' ! ' ' } ' T B f 9 , ",
"X 3 9 a C P / } #.+.} @.@.} +.+.@.+.} } X.#.X.@.} @.,.} ' P S f 7 - ",
"o - 9 l c P ' @.1.1.1.1.1.1.1.1.1.1.1.1.1.1.1.1.1.1.-.@.' I c x 0 - ",
"+ 2 y f c P ' ,.$.-.$.,.-.-.-.-.-.,.-.-.&.-.-.,.&.&.$.} ' I A l 6 - ",
"+ 1 6 f M P } #.} } #.X.@.} } @. .} ..} +.} } } ..} }  .' T A f 0 3 ",
"o 1 9 l B ] ] [ ' ' ' ' ] ' ~ ' ` ' ' ' ' ' ! ] ' ' ' ] ~ T A f 7 - ",
"+ - q f T P P P P P T P K P T T T T L P P W P P T T P T T W V a 7 3 ",
"X 3 q B c N B A B c B c C C B c B M B c B F B B B c c c B B B a q - ",
"o 3 f z l k k l l l z a l l a a k l l f f a l l f f a a f a l l 9 - ",
"+ y 9 9 6 6 9 y 9 9 9 y 9 9 u 9 9 9 7 6 9 9 7 9 9 9 8 u u 9 9 9 q , ",
", , - - , - , = = * 2 * * , , - 3 - - - , , - - , - - , , , , - , , "
};
