/* XPM */
static char *_e1b4bcfecd446acf6c52a9d9e5929ed[] = {
/* columns rows colors chars-per-pixel */
"204 37 27 1 ",
"  c black",
". c #6FA7DF",
"X c #6CACDE",
"o c #70A6DF",
"O c #67B6DB",
"+ c #69B3DC",
"@ c #64BCD9",
"# c #7B8EE7",
"$ c #7C8DE8",
"% c #7796E4",
"& c #7993E6",
"* c #759BE3",
"= c #6FA6E0",
"- c #72A1E1",
"; c #53DECF",
": c #5FC6D6",
"> c #5CCCD4",
", c #57D6D1",
"< c #59D3D2",
"1 c #55DAD0",
"2 c #61C3D7",
"3 c #62C1D8",
"4 c #4FE6CD",
"5 c #4CEBCB",
"6 c #51E2CE",
"7 c #4AF0CA",
"8 c None",
/* pixels */
"888888888                              888888888888888888                  88888888888888                 8                 8888888888                        8888888888                                  88",
"888888888 7757777775775777777757777578  8888888888888888 877777777777777777 8888888888888 777777777777778  877777777777777   8888888  887777777777777777777778  88888888 7777777777777777777777777777777   8",
"888888888 575575575555555575755757755758 888888888888888 757557575557555575   8888888888 875775755755757   877577774755578    88888 857777577777557757757755578  8888888 7777757757777777777777775777778    ",
"88888888 8555555555555555555555555555555  8888888888888 8555555555555555555   8888888888 875555555575558   747475557555558    8888 87555555555555755575555555558 8888888 7555555755555555755755557555578    ",
"88888888 85554445554555555555555554545558  88888888888 85545555555545555455   8888888888 455555555555558   54757555554555     888 855555555555555555555555555555  888888 555555555555555555555555555555     ",
"88888888 44445445645445444444456454545448   8888888888 85454445445555656454   8888888888844554544455556   854444445465555    888 84454554545544545454554554554558  88888 545554555455545544545555545454    8",
"8888888 844444446564644544564465444444448   888888888 844444444445666655444   888888888 844444444444454   844454444545468    88 84444444444444445444544444544444    888 8644544444544444444444446544548    8",
"8888888 866444446464644664646466464644668   88888888  464464466664656566444   888888888 844464444464668   444466444646448    88 84444446444444446444664464444644    888 8444444444444446444444444644448    8",
"8888888 66666666666666666666666666666666    88888888 8666666666666666666646   888888888 666666666666668  866666666664666     88 64666466666646666466666466646668    888 666664646664646666666666644666     8",
"8888888 666;6;;66666666666666;6;66666666    8888888 8;666666666666666666666   88888888 866666666666666   866666666666668    888 6666666666666666666666666666666     88 8666666666666666666666666666668    88",
"888888 8;;;;;66;;;;;;;;;;6;6;66;61661668    888888  666666;;66166;;;;6;;;;;   88888888 866611666616668   66;;6666;6;;668    88 86;6;;6;6666;666;;66666;6666;668     88 866;6666;6;6666;6666666666666;8    88",
"888888 8;;;;;1;;;;;;;8   1;;;61;16116118    888888 8;1161161161;61;;;;;;;;;   88888888 161616116;;;;68   ;;;;61;;;;;;;;     88 8;;;;;;;;;;618     ;;;;;;;;;;8      888 ;;6;;;;;;;;;;68              8     88",
"888888 1;1111111;,;;,8  8;;;;1;11111;1;     88888 8;1;111116111611;1;1;1;;;   888888888111161161;;;,;   8;;1;111;;;1;,;    888 8;;;;1;161;;1;18   ;1;;;;1;;8       888 1;;;;;;;1;;;;;                    888",
"88888 8111111;11,;;,;   8;,,,,,;1111118    888888 11111111111111111111,;111   8888888 8111111111;,;;,   8,;1111111;1;18    888 8111111111111111;8811111118        888 811;,1;;;111111                    888",
"88888 8,1,,11,,1,,,,8   ,,;,,,,;1111118    88888 811111111111111,,11,,,,,11   8888888 8111,1,1111,;,8   ,,,,11,111,1;,8    888 111111111,;1111,1111,1,88         8888 8,11,;1;<;11111111111118   888     888",
"88888 <<<<<<<<<<<<<<8   <<<<<<<<<<<<<<     8888 8<<<<<<<<<<<<<<<,,,,,,,<,<<   8888888 1<<1<<1,<,<<<,8  8,,,,1<11<<1<<<    8888 8,,,,,,,,,,,,1,,,1,,,118         88888 ,11<,1<1,<1,,1,,1<1,1,18   888888  888",
"88888 >:>:>>:>>>>>:>   8:>>>>>:>>>>>>>    88888 8>>>>>>>><>>>>>>>>>>>>>>>>>   888888 8>>>><>>>>>>>><   8>><>>><><>><>8    8888 8<><<><<<<<><<<><<<<<<<><8     888888 8<<<<><<<<<<<><<<><<<><<    88888888888",
"8888 822222222222222222222222222222228    8888 822222222222228223333:::::3:   888888 8:::::::::::::8   2::::>::::::::8    8888 8222::22222:2::::2:222:::::8 88888888 8>::>>:>::>:2>>>:>>:<::8    88888888888",
"8888 83OOO3OOO3O@@O@O@OOOO@O@O@@@@@@@8    888  @@@@O@@@@@@@@8 @@3@@@@@@@@@@   888888 @33@@33@@3@@@@8   33@3@@3@3@3@@3     88888  833333333233333333333333338 8888888 333333333333333333323228    88888888888",
"8888 XXX+XXXX+XXXX+XX++++++X++X+X+XXX     888 8X++++++++++++8 +++++++++++++   8888888++++++++++++++   8++++++++++O++8    8888888   8OO+O++OO+O++OOO+OOOOOOO8  888888 OO+OOOO+OO@+@OOOOOOOOOO     88888888888",
"888 8--o---o---o----=---o--=----oo--8    888 8-o-ooooooo-oo8  oo==========-   88888 8===========X=X   8===X=X=X=XX==8    8888888  88oXXooXXoXooXooXXoXXXooX8  88888 8oXXooXXXXXoXXXXXXXXXXXX    888888888888",
"888 8-*----*---*--------------------8    88  ---*------*---   -------------   88888 --------------8   --------------8    88888  8o--o---88---o-o--------o-o8   8888 8oooooo---oooo8             88  88888888",
"888 -----*-*---*--*------*-**--*-*-8     88 8*----*--**---8   --*--*-**---*   88888 *-*--**----*--8  8--*----**-----    8888  8--**o*---8  88-***------*---8   8888 o***o*oo-*o***8                  8888888",
"888 *****-*****************-**-***8     88 8*-**-****-************-**-****-   8888 8*-***-*-**-***   8*-**-***-****8    888  8*-*-**-***8    88o*-***-*-***8   888 8*-*-*****-*-*-              88    888888",
"88 8*****************************8      8  8*******************************   8888 8************%*********--**-****8    88 8***-*************************-*    888 8**************-******-******-8    888888",
"88 8*%%**%%******%***%*****&**%%8      88 8******%*%%*%****%************%**   8888 ***********************&*%******     88 ****%**************************8    888 ******************************     888888",
"88 *%%*%%*%%%*%%%%%*%%%**%**%88       88 8%%%%%%%%*%*%*%%%*%%%*%%%*%%%%%*%%   88888%&**%**&**%%%%%*******%%*****%%8    88 8%%*%**&*%**&*%*%*%%%***%%%****%8   888  **%%*%****%%******&******%**&%    8888888",
"8 8&%%&%%%%%&%%%%                    888 8*%%%%%%%%%%%%%%%&*%%%%%%%%%%%%%%%   888 8%%*&*&%%&%%%%%%%%&&*&%%%*&%&&%%8    88 8%%%%%%%%**%*&%%%%*%%%*&%*%%%%%%    888 8%*%%%%%%*%*%%%&*&*&*&&%*&*&**8    8888888",
"8 8%%&%&&%&%%&%%8                   888 8%&%&&&%%&&&%&%&&&&%*&&&%%%&%&%%&%%   888 &&%&&&&%&&%&&&%&&%&*&&&%&%%&&%%%     88 8%%%%%%&%&%%&&&%&%%&%%%%%&%%%%&8    888 8%%%%%%%%%%%%%&%%&%&&*&*%%&*&*8    8888888",
"8 &&&&&&&&&&&&&#8                 8888  &&&&&&&&&&%&&%&%&&&&&&&&&&&&&&&&&&&   888 8&&%&&&&&&&&&&&%&&&&&&%&&&&%&%%8    888 8&&&&&&&&%&%&&&%%&&&&%&&&%&&%%&     888 %&&%&&&%&%&&&&&&&&&%&&&&%&&&&&    88888888",
"  &##&&&&&&#&#&&     88888888888888888 8#&&&&&$&&&&&&&&&&&&&&&&&&&&&&&&&&&&   888 8&&&&&&&&&&&&&&&&&&&&&&&%&&&&$8     888 8&&&&&&&&&&&&&&&&&&&&&&&&&&&&&8    888 8&&&&&#&&&&&&&&&&&&&&&&&&&&&&&8    88888888",
" 8#&#&###&##&&##    88888888888888888 8&#&&$&$&&$&&$$8        8#$&$&&$&$&&$   8888 &&&&$&&$&&&&&$&$&$&&&$&$$$&&8      88888&$&&$&#&#&&$&$&&&&$&&&$&$&&$8     888 8&##&&&&#&#&#&&&&&&&&&&&&&$&&&8    88888888",
" 8##$##$$######8    8888888888888888  ##############8         8##########$#   8888 8##########$#&$$$&$&$&$####8      88888 8&$#&##&########&####&####&8     8888 ####&#&##&#&#####&#$###&#&####     88888888",
" $$#$$$$$$$$$$$8    8888888888888888 8$$$$$$$#$$$$#$          8##$$$$$##$##   88888  88$#######$$$$$$$$$$$888       8888888 888$$$#$######$#$$####$88      8888  ##$#$$#$#$#######$#####$#$####    888888888",
"                   88888888888888888                     88888                8888888                              888888888                              888888                                   888888888",
"8                  888888888888888888                   8888888               88888888                            88888888888                            88888888                                  888888888",
"88                 8888888888888888888                 888888888              888888888                         888888888888888                         8888888888                                8888888888"
};
